<?xml version="1.0" encoding="UTF-8" standalone="no"?>
<svg width="103px" height="117px" viewBox="0 0 103 117" version="1.1" xmlns="http://www.w3.org/2000/svg" xmlns:xlink="http://www.w3.org/1999/xlink">
    <!-- Generator: Sketch 39.1 (31720) - http://www.bohemiancoding.com/sketch -->
    <title>Page 1</title>
    <desc>Created with Sketch.</desc>
    <defs></defs>
    <g id="closed-beta-invite" stroke="none" stroke-width="1" fill="none" fill-rule="evenodd">
        <g id="Step-6---App-Overview" transform="translate(-669.000000, -335.000000)">
            <g id="icon---My-Account" transform="translate(596.000000, 335.000000)">
                <g id="Page-1" transform="translate(73.000000, 0.000000)">
                    <g id="Group-3" transform="translate(0.000000, 0.167806)" fill="#B6AD9C">
                        <path d="M60.0450241,84.7920705 C58.932037,86.0765373 57.6170526,87.1044849 56.1729179,87.8093784 C54.7277158,88.514272 53.1549645,88.8995853 51.4976251,88.9001198 C49.8402858,88.8995853 48.2678013,88.514272 46.8223324,87.8093784 C44.656664,86.7528397 42.7789153,84.9657555 41.4433842,82.6835356 C40.3429386,80.8034631 39.6144671,78.5915188 39.3919231,76.1952013 C41.403892,77.7198877 43.5300681,78.8718196 45.7429671,79.6047699 C47.602037,80.2204162 49.6094697,80.5424013 51.4773453,80.5426685 C53.345221,80.5424013 55.396949,80.2204162 57.2557521,79.6047699 C59.4542417,78.8768965 61.586822,77.7345841 63.6001251,76.2251285 C63.2825863,79.5783164 61.9721381,82.5691707 60.0450241,84.7920705 M26.9612106,48.8481095 L26.8563427,48.5012741 L26.6031122,48.2391434 C26.4747624,48.0985922 26.3506821,47.9615148 26.236208,47.8102753 L26.2311381,47.8078704 L26.2276692,47.8057327 C25.8258091,47.279601 25.4092728,46.5706993 25.0461044,45.7383477 C24.6818687,44.9059962 24.3675319,43.9496603 24.1495241,42.9225143 L24.1465889,42.909154 C23.9163065,41.8352467 23.7679438,40.7934044 23.7682106,39.8565747 C23.7682106,39.8082101 23.72605,39.7601127 23.72605,39.7122826 L23.72605,39.7106793 C23.72605,38.9098582 23.8661407,38.1851913 24.0024956,37.6000067 L24.0243764,37.597869 C24.1567288,37.017227 24.3592598,36.5578972 24.5116251,36.3029811 L24.5188298,36.2997747 C24.6071536,36.148268 24.6877391,36.058219 24.724563,36.0213444 L24.7416407,36.0085184 L25.2483687,35.5954155 L25.291063,34.9418258 C25.2774541,34.3611837 25.3270863,33.7842826 25.3270863,33.2031061 L25.3270863,33.1945555 C25.3270863,32.9976235 25.2750526,32.8063029 25.2838583,32.6008202 L25.2579749,32.537492 L25.2400966,32.4738966 C25.184594,31.4047991 25.1274904,30.3538718 25.094936,29.2927905 C25.0823946,28.8869022 25.0727883,28.4871596 25.0727883,28.0930285 C25.073322,23.8393511 25.7836484,20.2809479 26.9833583,17.2999802 C27.8839412,15.0639872 29.058835,13.1502466 30.4327909,11.5071872 C32.4933246,9.04380062 35.0056174,7.1869752 37.7111018,5.82368216 C40.4035111,4.46680211 43.2747028,3.6053249 46.0498324,3.13664281 C48.1696044,2.9210063 49.8763091,2.80958074 51.4773453,2.77217168 C53.0783816,2.80958074 54.8291148,2.9210063 56.9488868,3.13664281 C59.7240163,3.6053249 62.6395034,4.46680211 65.3319127,5.82368216 C68.0373972,7.1869752 70.5491562,9.04380062 72.6099567,11.5071872 C73.9839127,13.1502466 75.158006,15.0639872 76.0585889,17.2999802 C77.2582987,20.2809479 77.9672909,23.8393511 77.9675578,28.0930285 C77.9675578,28.4871596 77.9552832,28.8869022 77.9427417,29.2927905 C77.9101873,30.3538718 77.8477469,31.4047991 77.7919775,32.4738966 L77.7631588,32.537492 L77.7151277,32.6008202 C77.7239334,32.8063029 77.6276044,32.9976235 77.6276044,33.1945555 L77.6276044,33.2031061 C77.6276044,33.7842826 77.7204645,34.3611837 77.7071225,34.9418258 L77.7930448,35.5954155 L78.2979049,36.0085184 L78.3117806,36.0213444 C78.3486044,36.058219 78.4219852,36.148268 78.5100422,36.2997747 L78.5031044,36.3029811 C78.6554697,36.5578972 78.9618013,37.017227 78.9618013,37.597869 L78.9618013,37.6000067 C79.2286407,38.1851913 79.2286407,38.9098582 79.2286407,39.7106793 L79.2286407,39.7122826 C79.2286407,39.7601127 79.2307754,39.8082101 79.2307754,39.8565747 C79.2307754,40.7934044 79.126708,41.8352467 78.8964256,42.909154 L78.8934904,42.9225143 C78.6754826,43.9496603 78.3606122,44.9059962 77.9966433,45.7383477 C77.633208,46.5706993 77.2161381,47.279601 76.814278,47.8057327 L76.8094749,47.8078704 L76.8014697,47.8102753 C76.6872624,47.9615148 76.5573117,48.0985922 76.4292288,48.2391434 L76.1647909,48.5012741 L76.0375085,48.8481095 C75.4776795,51.3465003 74.6923712,53.7380081 73.8918531,55.9924384 L73.8918531,55.9929728 C71.7571381,62.6477774 68.2623427,68.1391602 64.4372003,71.892625 L64.5271251,71.8931594 C61.9753402,74.4025057 59.2196899,76.140691 56.4184101,77.067634 C54.8139049,77.5983083 53.0783816,77.8697912 51.4773453,77.8705928 C49.8763091,77.8697912 48.1850811,77.5983083 46.5805759,77.067634 C43.7792961,76.140691 41.0457935,74.4025057 38.4940085,71.8931594 L38.5505785,71.892625 C34.725436,68.1391602 31.1975526,62.6477774 29.0628376,55.9929728 L29.0628376,55.9924384 C28.2623194,53.7380081 27.5213065,51.3465003 26.9612106,48.8481095 M88.1653583,85.3238136 C82.450993,79.6002274 75.4008298,75.2046628 67.5280008,72.6400045 C71.2271951,68.6174617 74.3524179,63.2270834 76.6040085,56.8878509 C77.4066614,54.6294125 78.0908376,52.2480586 78.6584049,49.7742509 C78.7504645,49.6657647 78.8441251,49.5505982 78.9388531,49.4252778 C79.4957469,48.6936635 80.002208,47.8118785 80.440892,46.8101173 C80.8790422,45.8075545 81.2443453,44.6852827 81.500778,43.4793749 C81.7705526,42.2205601 81.8940992,40.9954133 81.8940992,39.8565747 C81.8943661,39.7975218 81.8874282,39.7387361 81.8868946,39.6802177 C81.8754205,38.703574 81.7577443,37.7990763 81.5714904,36.9958504 C81.3836355,36.1878147 81.0962495,35.5048321 80.768037,34.9450323 C80.6607676,34.7627967 80.4982624,34.5989985 80.3821873,34.4509655 C80.389392,34.0346561 80.2959982,33.6199499 80.2959982,33.1974947 L80.2959982,33.194021 L80.2959982,33.1921506 C80.2959982,33.1761181 80.3973972,33.1667659 80.3973972,33.1616889 C80.3968635,32.9503277 80.4929256,32.7499221 80.4849205,32.5532573 C80.5398894,31.4964513 80.5895215,30.4449895 80.6223427,29.3750904 C80.6356847,28.9419469 80.641822,28.5144148 80.641822,28.0930285 C80.6428894,22.9725298 79.6713272,18.6592651 78.00705,15.0808213 C76.3443738,11.5021103 73.9905837,8.66944281 71.2915034,6.4919683 C69.4922054,5.03942794 67.537607,3.87493734 65.5277728,2.95681212 C62.8473712,1.73246702 60.0599671,0.944471886 57.3792987,0.494494334 L57.3283324,0.48727973 L57.2685604,0.483004408 C55.039651,0.255343556 53.0783816,0.137505017 51.4773453,0.0995615416 C49.8763091,0.137505017 47.9590681,0.255343556 45.7304256,0.483004408 L45.6928013,0.48727973 L45.6527754,0.494494334 C42.972107,0.944471886 40.1905733,1.73246702 37.5099049,2.95681212 C35.5000707,3.87493734 33.5484075,5.03942794 31.7488427,6.4919683 C29.0500293,8.66944281 26.6975733,11.5021103 25.0348972,15.0808213 C23.3706199,18.6592651 22.3998583,22.9725298 22.4006588,28.0930285 C22.4006588,28.5144148 22.4073298,28.9419469 22.4206718,29.3750904 C22.453493,30.4449895 22.503392,31.4964513 22.558094,32.5532573 C22.5500889,32.7499221 22.6021225,32.9503277 22.6015889,33.1616889 C22.601322,33.1667659 22.6586925,33.1761181 22.6586925,33.1921506 L22.6586925,33.194021 L22.6586925,33.1974947 C22.6586925,33.6199499 22.609594,34.0346561 22.6167987,34.4509655 C22.5007236,34.5989985 22.3603661,34.7627967 22.2530966,34.9450323 C21.9248842,35.5048321 21.6484386,36.1878147 21.4605837,36.9958504 C21.2743298,37.7990763 21.1622573,38.703574 21.15105,39.6802177 C21.1502495,39.7387361 21.1462469,39.7975218 21.1462469,39.8565747 C21.1465137,40.9954133 21.2713946,42.2205601 21.5411692,43.4793749 C21.7976018,44.6852827 22.1637054,45.8075545 22.6015889,46.8101173 C23.0402728,47.8118785 23.5470008,48.6936635 24.1038946,49.4252778 C24.1988894,49.5505982 24.29255,49.6657647 24.3846096,49.7742509 C24.9521769,52.2480586 25.6366199,54.6294125 26.4392728,56.8878509 C28.6889956,63.2220064 31.8110163,68.6089111 35.506208,72.6303851 C27.6176355,75.1950434 20.5535966,79.5980897 14.829892,85.3310282 C6.79936088,93.3707697 1.39186088,103.943639 2.66839379e-05,115.96798 L2.88963031,115.96798 C4.26545415,104.745262 9.34580907,94.8831645 16.860006,87.3567288 C22.3382184,81.8722934 29.1044645,77.6830131 36.6645578,75.2762745 C36.80705,79.6456527 38.3936769,83.6086082 40.9345215,86.5430818 C42.2671174,88.0811285 43.8638842,89.3375386 45.6530422,90.2113073 C47.4411329,91.0848089 49.4234826,91.5727299 51.4976251,91.5721955 C53.5717676,91.5727299 55.5541174,91.0848089 57.342208,90.2113073 C60.0263453,88.8998525 62.2752676,86.7311959 63.8538894,84.0348043 C65.3348479,81.5043486 66.2290267,78.5025387 66.3344282,75.2797482 C73.8926536,77.6886244 80.6578324,81.8803096 86.1352443,87.3639434 C93.6494412,94.8903791 98.7297961,104.745262 100.10562,115.96798 L102.995224,115.96798 C101.603389,103.943639 96.1958894,93.3635551 88.1653583,85.3238136" id="Fill-1"></path>
                    </g>
                    <path d="M26.4390326,57.0556038 L26.4390326,57.0556038 C26.4390326,57.0559862 26.4394141,57.0563685 26.4394141,57.0563685 L26.4390326,57.0556038 Z" id="Fill-4" fill="#C69C6D"></path>
                    <path d="M24.101493,49.5904388 L24.1064523,49.5969388 C24.1056893,49.5961741 24.1053078,49.5950271 24.1045449,49.5942624 C24.1034004,49.592733 24.1026374,49.5915859 24.101493,49.5904388" id="Fill-6" fill="#C69C6D"></path>
                    <path d="M80.7730635,35.1154578 L80.7700117,35.1104872 C80.7703931,35.1112519 80.7707746,35.1116343 80.7711561,35.1120166 C80.7715376,35.1131637 80.7723005,35.1143107 80.7730635,35.1154578" id="Fill-8" fill="#C69C6D"></path>
                    <path d="M21.5390611,43.6461659 L21.5398241,43.6499894 C21.5398241,43.6492247 21.5394426,43.64846 21.5394426,43.6476953 C21.5394426,43.6469306 21.5390611,43.6465482 21.5390611,43.6461659" id="Fill-10" fill="#C69C6D"></path>
                    <path d="M22.2258276,35.1114759 L22.2231573,35.1160641 C22.2235387,35.1152994 22.2243017,35.1145347 22.2246832,35.1133876 C22.2250647,35.1126229 22.2254461,35.1122406 22.2258276,35.1114759" id="Fill-12" fill="#C69C6D"></path>
                    <path d="M21.4466972,37.1624009 L21.4459342,37.1654597 C21.4459342,37.1650773 21.4463157,37.164695 21.4463157,37.1643126 C21.4463157,37.1635479 21.4466972,37.1627832 21.4466972,37.1624009" id="Fill-14" fill="#C69C6D"></path>
                    <path d="M21.1437653,39.8473026 L21.1437653,39.8492143 L21.1437653,39.8480673 L21.1437653,39.8473026 Z" id="Fill-16" fill="#C69C6D"></path>
                </g>
            </g>
        </g>
    </g>
</svg>