<?xml version="1.0" encoding="UTF-8" standalone="no"?>
<svg width="110px" height="118px" viewBox="0 0 110 118" version="1.1" xmlns="http://www.w3.org/2000/svg" xmlns:xlink="http://www.w3.org/1999/xlink">
    <!-- Generator: Sketch 39.1 (31720) - http://www.bohemiancoding.com/sketch -->
    <title>Group</title>
    <desc>Created with Sketch.</desc>
    <defs>
        <polygon id="path-1" points="16.6818481 0.155718646 0.0621012658 0.155718646 0.0621012658 18.0712073 16.6818481 18.0712073 16.6818481 0.155718646"></polygon>
    </defs>
    <g id="closed-beta-invite" stroke="none" stroke-width="1" fill="none" fill-rule="evenodd">
        <g id="Step-6---App-Overview" transform="translate(-385.000000, -333.000000)">
            <g id="Group" transform="translate(385.000000, 333.000000)">
                <polygon id="Fill-1" fill="#B6AC9B" points="2.41953586 117.975668 4.74021097 117.975668 4.74021097 73.8514941 2.41953586 73.8514941"></polygon>
                <polygon id="Fill-2" fill="#B6AC9B" points="105.225443 117.975668 107.546118 117.975668 107.546118 73.8514941 105.225443 73.8514941"></polygon>
                <path d="M80.550865,79.7057214 C76.7068987,79.7052545 73.2052321,81.2811178 70.6875316,83.8158065 C69.4643038,85.0454469 68.4638608,86.5094823 67.7613924,88.1290029 C67.058692,86.5094823 66.0610338,85.0489488 64.838038,83.8193084 C62.3201055,81.2843863 58.8281857,79.7136591 54.9842194,79.7143595 C51.1402532,79.7136591 47.6490295,81.2853201 45.131097,83.8200088 C43.9078692,85.0496492 42.9127637,86.5115834 42.2100633,88.1313375 C41.5075949,86.5115834 40.5124895,85.0498826 39.2892616,83.8202423 C36.7715612,81.2855536 33.2808017,79.7143595 29.4368354,79.7148264 C25.5928692,79.7143595 22.1023418,81.2675771 19.5844093,83.8022658 C17.0648523,86.3350867 15.4587131,89.9602729 15.4594093,93.6956527 L15.4153165,117.975622 L17.7359916,117.975622 L17.7359916,93.6956527 C17.7805485,90.4271953 19.1000844,87.5707971 21.2033122,85.4530702 C23.3083966,83.337211 26.2152743,82.0410342 29.4256962,82.0403338 C32.6361181,82.0410342 35.5374262,83.3325418 37.6427426,85.4486344 C39.7459705,87.5663613 41.0487975,90.4271953 41.0494937,93.6956527 L40.9427426,117.975622 L43.2634177,117.975622 L43.2634177,93.6956527 C43.3706329,90.4271953 44.6681224,87.5707971 46.7713502,85.4530702 C48.8766667,83.337211 51.7724051,82.0410342 54.982827,82.0403338 C58.1932489,82.0410342 61.0889873,83.3325418 63.1943038,85.4486344 C65.2975316,87.5663613 66.5950211,90.4271953 66.5954852,93.6956527 L66.7022363,117.975622 L69.0229114,117.975622 L69.0229114,93.6956527 C68.9168565,90.4271953 70.2141139,87.5707971 72.3175738,85.4530702 C74.4226582,83.337211 77.3183966,82.0410342 80.5288186,82.0403338 C83.7392405,82.0410342 86.635211,83.3325418 88.7402954,85.4486344 C90.8435232,87.5663613 92.1851055,90.4271953 92.1855696,93.6956527 L92.2296624,117.975622 L94.5503376,117.975622 L94.5503376,93.6956527 C94.5503376,89.9602729 92.9448945,86.3350867 90.4253376,83.8022658 C87.9076371,81.2675771 84.3948312,79.7052545 80.550865,79.7057214 Z" id="Fill-3" fill="#B6AC9B"></path>
                <g id="Group-7" transform="translate(46.645570, 0.077743)">
                    <mask id="mask-2" fill="white">
                        <use xlink:href="#path-1"></use>
                    </mask>
                    <g id="Clip-6"></g>
                    <path d="M8.96629958,18.0712073 C12.2653713,18.0712073 15.1432405,16.2649177 16.6818481,13.582915 C15.5897384,14.2744271 14.2978186,14.6762139 12.9121435,14.6762139 C8.99809283,14.6762139 5.82526582,11.4840984 5.82526582,7.54654116 C5.82526582,4.07030331 8.29840928,1.17701818 11.5710253,0.545972453 C10.7469536,0.29290047 9.87275527,0.155625262 8.96629958,0.155625262 C4.04855696,0.155625262 0.0621012658,4.16625588 0.0621012658,9.11329954 C0.0621012658,14.0605766 4.04855696,18.0712073 8.96629958,18.0712073" id="Fill-5" fill="#B6AC9B" mask="url(#mask-2)"></path>
                </g>
                <path d="M4.62013924,71.7503429 C5.00072996,58.3674109 10.5429662,46.2953637 19.3209198,37.4628246 C28.4216793,28.3095098 40.9816371,22.6515767 54.8669325,22.6508763 C68.7519958,22.6515767 81.3119536,28.3095098 90.4127131,37.4628246 C99.1906667,46.2953637 104.732903,58.3674109 105.113494,71.7503429 L107.435793,71.7503429 C107.055203,57.7286609 101.247945,45.0598868 92.0536624,35.8120202 C82.5402869,26.2398759 69.3855401,20.315797 54.8669325,20.3162639 C40.3480928,20.315797 27.193346,26.2398759 17.6799705,35.8120202 C8.48568776,45.0598868 2.67843038,57.7286609 2.29783966,71.7503429 L4.62013924,71.7503429 Z" id="Fill-8" fill="#B6AC9B"></path>
                <polygon id="Fill-10" fill="#B6AC9B" points="105.220059 71.5168817 4.74573418 71.5168817 2.41600844 71.5168817 -4.64135021e-05 71.5168817 0.098814346 71.5168817 0.098814346 73.8514941 2.41948945 73.8514941 107.546072 73.8514941 109.866747 73.8514941 109.866747 71.5168817 107.549785 71.5168817"></polygon>
            </g>
        </g>
    </g>
</svg>