<?xml version="1.0" encoding="UTF-8" standalone="no"?>
<svg width="116px" height="84px" viewBox="0 0 116 84" version="1.1" xmlns="http://www.w3.org/2000/svg" xmlns:xlink="http://www.w3.org/1999/xlink">
    <!-- Generator: Sketch 39.1 (31720) - http://www.bohemiancoding.com/sketch -->
    <title>Page 1</title>
    <desc>Created with Sketch.</desc>
    <defs></defs>
    <g id="closed-beta-invite" stroke="none" stroke-width="1" fill="none" fill-rule="evenodd">
        <g id="Step-6---App-Overview" transform="translate(-942.000000, -369.000000)" fill="#B6AC9B">
            <g id="icon---Quran" transform="translate(876.000000, 369.000000)">
                <g id="Page-1" transform="translate(66.000000, 0.000000)">
                    <path d="M98.1495529,3.33680562 L112.083435,41.3914011 L57.9707294,68.4431764 L3.85755294,41.3914011 L17.7914353,3.33680562 L15.2956706,2.57726629 L0.704847059,42.4255921 L14.1436706,49.1439404 L-9.4117647e-05,83.9940303 L46.3486118,65.2436258 L57.9704941,70.4565809 L69.5921412,65.2436258 L115.941318,83.9945022 L101.797318,49.1439404 L115.236141,42.4258281 L100.645318,2.57726629 L98.1495529,3.33680562 Z M72.3479059,63.8661202 L98.5999059,50.7427719 L99.4683765,50.3083787 L111.378729,79.6564685 L72.3479059,63.8661202 Z M16.4726118,50.3083787 L43.5933176,63.8661202 L6.53284706,78.8591764 L4.56225882,79.6562326 L16.4726118,50.3083787 Z" id="Fill-1"></path>
                    <path d="M15.0819529,36.1783753 L26.7786588,4.23454382 C27.1410118,4.05262247 27.7499529,3.7694764 28.6071294,3.48868989 C30.0080706,3.02952135 32.0210118,2.57719551 34.5494824,2.57719551 C37.2711294,2.57813933 40.5784235,3.09842022 44.3748941,4.72226292 C48.0619529,6.30033034 52.2087765,8.92957753 56.6793647,13.1590719 L56.6793647,57.6686899 C51.2676,52.0111955 34.8080706,36.6002629 15.0819529,36.1783753 L15.0819529,36.1783753 Z M71.4565412,4.72226292 C75.2532471,3.09842022 78.6233647,2.57813933 81.3452471,2.57719551 C83.8737176,2.57719551 85.9221882,3.02952135 87.3231294,3.48868989 C88.1803059,3.7694764 88.7866588,4.05262247 89.1490118,4.23454382 L100.742894,36.1783753 C81.0167765,36.6002629 64.4440706,52.0111955 59.0323059,57.6686899 L59.0323059,13.1590719 C63.5028941,8.92957753 67.7697176,6.30033034 71.4565412,4.72226292 L71.4565412,4.72226292 Z M104.165482,37.9029708 L91.2567765,2.47290337 L90.8944235,2.23836404 C90.8261882,2.19612809 89.9238353,1.63951011 88.2958353,1.08997079 C86.6685412,0.540903371 84.3247765,-0.000141573034 81.3986588,9.4382022e-05 C78.3478353,-0.000849438203 74.6725412,0.591161798 70.5603059,2.35185843 C66.7007765,4.00330787 62.4083059,6.67951011 57.9125412,10.8344427 C53.4266588,6.67951011 49.2130118,4.00330787 45.3534824,2.35185843 C41.2414824,0.591161798 37.5786588,-0.000849438203 34.5278353,9.4382022e-05 C31.6017176,-0.000141573034 29.2612471,0.540903371 27.6339529,1.08997079 C26.0059529,1.63951011 25.0996,2.19612809 25.0313647,2.23836404 L24.6553647,2.47290337 L11.6586588,37.9029708 L57.8541882,61.2316112 L104.165482,37.9029708 Z" id="Fill-2"></path>
                </g>
            </g>
        </g>
    </g>
</svg>