
<svg width="33px" height="34px" viewBox="1264 51 33 34" version="1.1" xmlns="http://www.w3.org/2000/svg" xmlns:xlink="http://www.w3.org/1999/xlink">
    <!-- Generator: Sketch 39.1 (31720) - http://www.bohemiancoding.com/sketch -->
    <desc>Created with Sketch.</desc>
    <defs></defs>
    <g id="Button---App-Drawer" stroke="none" stroke-width="1" fill="none" fill-rule="evenodd" transform="translate(1264.000000, 52.000000)">
        <path d="M16.3,20.4914286 C18.6148621,20.4914286 20.4914286,18.6148621 20.4914286,16.3 C20.4914286,13.9851379 18.6148621,12.1085714 16.3,12.1085714 C13.9851379,12.1085714 12.1085714,13.9851379 12.1085714,16.3 C12.1085714,18.6148621 13.9851379,20.4914286 16.3,20.4914286 Z M16.3,32.6 C18.6148621,32.6 20.4914286,30.7234335 20.4914286,28.4085714 C20.4914286,26.0937093 18.6148621,24.2171429 16.3,24.2171429 C13.9851379,24.2171429 12.1085714,26.0937093 12.1085714,28.4085714 C12.1085714,30.7234335 13.9851379,32.6 16.3,32.6 Z M16.3,8.38285714 C18.6148621,8.38285714 20.4914286,6.50629065 20.4914286,4.19142857 C20.4914286,1.87656649 18.6148621,-3.55271368e-15 16.3,-3.55271368e-15 C13.9851379,-3.55271368e-15 12.1085714,1.87656649 12.1085714,4.19142857 C12.1085714,6.50629065 13.9851379,8.38285714 16.3,8.38285714 Z M4.19142857,20.4914286 C6.50629065,20.4914286 8.38285714,18.6148621 8.38285714,16.3 C8.38285714,13.9851379 6.50629065,12.1085714 4.19142857,12.1085714 C1.87656649,12.1085714 0,13.9851379 0,16.3 C0,18.6148621 1.87656649,20.4914286 4.19142857,20.4914286 Z M4.19142857,32.6 C6.50629065,32.6 8.38285714,30.7234335 8.38285714,28.4085714 C8.38285714,26.0937093 6.50629065,24.2171429 4.19142857,24.2171429 C1.87656649,24.2171429 0,26.0937093 0,28.4085714 C0,30.7234335 1.87656649,32.6 4.19142857,32.6 Z M4.19142857,8.38285714 C6.50629065,8.38285714 8.38285714,6.50629065 8.38285714,4.19142857 C8.38285714,1.87656649 6.50629065,-3.55271368e-15 4.19142857,-3.55271368e-15 C1.87656649,-3.55271368e-15 0,1.87656649 0,4.19142857 C0,6.50629065 1.87656649,8.38285714 4.19142857,8.38285714 Z M28.4085714,20.4914286 C30.7234335,20.4914286 32.6,18.6148621 32.6,16.3 C32.6,13.9851379 30.7234335,12.1085714 28.4085714,12.1085714 C26.0937093,12.1085714 24.2171429,13.9851379 24.2171429,16.3 C24.2171429,18.6148621 26.0937093,20.4914286 28.4085714,20.4914286 Z M28.4085714,32.6 C30.7234335,32.6 32.6,30.7234335 32.6,28.4085714 C32.6,26.0937093 30.7234335,24.2171429 28.4085714,24.2171429 C26.0937093,24.2171429 24.2171429,26.0937093 24.2171429,28.4085714 C24.2171429,30.7234335 26.0937093,32.6 28.4085714,32.6 Z M28.4085714,8.38285714 C30.7234335,8.38285714 32.6,6.50629065 32.6,4.19142857 C32.6,1.87656649 30.7234335,-3.55271368e-15 28.4085714,-3.55271368e-15 C26.0937093,-3.55271368e-15 24.2171429,1.87656649 24.2171429,4.19142857 C24.2171429,6.50629065 26.0937093,8.38285714 28.4085714,8.38285714 Z" id="Combined-Shape" fill="#4D4D4D"></path>
    </g>
</svg>