
<svg width="119px" height="139px" viewBox="381 313 119 139" version="1.1" xmlns="http://www.w3.org/2000/svg" xmlns:xlink="http://www.w3.org/1999/xlink">
    <!-- Generator: Sketch 39.1 (31720) - http://www.bohemiancoding.com/sketch -->
    <desc>Created with Sketch.</desc>
    <defs>
        <polygon id="path-1" points="19.2895539 0.17932882 0.223996868 0.17932882 0.223996868 20.8111768 19.2895539 20.8111768 19.2895539 0.17932882"></polygon>
        <polygon id="path-3" points="0 138.820671 119 138.820671 119 0.268858801 0 0.268858801"></polygon>
    </defs>
    <g id="icon---Mosque-Finder" stroke="none" stroke-width="1" fill="none" fill-rule="evenodd" transform="translate(381.000000, 313.000000)">
        <g id="Page-1">
            <g id="Group-3" transform="translate(49.516779, 0.089530)">
                <mask id="mask-2" fill="white">
                    <use xlink:href="#path-1"></use>
                </mask>
                <g id="Clip-2"></g>
                <path d="M10.4385629,20.8111768 C14.2231356,20.8111768 17.5245204,18.7310162 19.2895539,15.6423663 C18.0367262,16.4387261 16.5549499,16.9014321 14.9653548,16.9014321 C10.4753011,16.9014321 6.83528546,13.2253257 6.83528546,8.69075319 C6.83528546,4.68744565 9.67238389,1.35547853 13.4266076,0.628753191 C12.4812631,0.337310251 11.4784152,0.179221277 10.4385629,0.179221277 C4.79711096,0.179221277 0.223996868,4.79794662 0.223996868,10.4950646 C0.223996868,16.1924515 4.79711096,20.8111768 10.4385629,20.8111768" id="Fill-1" fill="#C69C6D" mask="url(#mask-2)"></path>
            </g>
            <mask id="mask-4" fill="white">
                <use xlink:href="#path-3"></use>
            </mask>
            <g id="Clip-5"></g>
            <path d="M4.25950783,82.6291818 L114.474273,82.6291818 L114.474273,78.327441 L4.25950783,78.327441 L4.25950783,82.6291818 Z M12.594566,57.2685377 C16.372217,49.7426422 22.7553557,43.0994101 30.8803669,38.4793404 C39.0019172,33.8584642 48.8480358,31.069323 59.4693848,31.0701296 C73.6317159,31.0666344 86.4139664,35.8818956 95.5711096,43.5973366 C100.151412,47.4533095 103.824172,52.001325 106.34447,57.0195745 C108.865034,62.0405126 110.241387,68.0306867 110.242718,73.7778124 C110.242718,73.8240561 110.241121,73.9154681 110.238991,74.0257002 L8.70004474,74.0257002 C8.69764877,73.9117041 8.69631767,73.8167969 8.69605145,73.7697466 C8.69738255,68.022352 10.0740022,62.2897447 12.594566,57.2685377 L12.594566,57.2685377 Z M119,78.4414371 L119,74.0257002 L118.951814,74.0257002 L114.57943,74.0257002 L114.574638,74.0257002 C114.577566,73.9114352 114.57943,73.8162592 114.57943,73.7697466 C114.580761,67.2079787 112.99436,60.6830445 110.156996,55.038354 C105.897754,46.5663443 98.8546577,39.3318917 90.080604,34.3397215 C82.1089351,29.8064932 72.6948904,26.9522882 62.5628523,26.4656538 C62.5676443,26.3911799 62.5740336,26.3175126 62.5740336,26.2419632 C62.5740336,24.4051199 61.0994452,22.915911 59.2806353,22.915911 C57.4618255,22.915911 55.9872371,24.4051199 55.9872371,26.2419632 C55.9872371,26.324234 55.9936264,26.4048917 55.9994832,26.4858182 C42.2990425,27.2060909 29.9307629,32.1418008 20.7001432,39.9080561 C15.7000134,44.1181161 11.6196711,49.1417427 8.78204027,54.7893907 C5.9444094,60.4338124 4.35800895,67.2163133 4.35960626,73.7778124 C4.35934004,73.8237872 4.36120358,73.9151992 4.36386577,74.0257002 L0,74.0257002 L0,78.4414371 L0,82.6584874 L0,87.1997814 L4.25950783,87.1997814 L4.25950783,138.820671 L8.7852349,138.820671 L8.7852349,87.1997814 L110.214765,87.1997814 L110.214765,138.820671 L114.474273,138.820671 L114.474273,87.1997814 L118.951814,87.1997814 L119,87.0744932 L119,82.6584874 L119,78.4414371 Z" id="Fill-4" fill="#C69C6D" mask="url(#mask-4)"></path>
            <path d="M96.8315246,105.653228 C95.7557327,103.085357 93.9635447,100.682835 91.7057394,99.1420054 C89.4489989,97.6009068 86.7151935,96.5865025 83.7907752,96.5875779 C81.8417841,96.5870402 79.9750548,96.9314484 78.2805694,97.6554851 C75.7379094,98.7422124 73.5810011,100.52394 72.0550324,102.804131 C71.9080794,103.023789 71.7688468,103.235381 71.6336074,103.463911 C70.5644709,101.655835 69.1141085,100.100756 67.3908714,98.9247675 C65.1343971,97.3839377 62.4003255,96.4781524 59.4759072,96.478959 C57.5271823,96.4786901 55.660453,96.8771389 53.9659676,97.6011756 C51.4233076,98.6879029 49.2661331,100.496785 47.7404306,102.776976 C47.5934776,102.996903 47.4539787,103.221938 47.3190056,103.450199 C46.2496029,101.642123 44.7992405,100.094034 43.0762696,98.918046 C40.8197953,97.3769474 38.0857237,96.4746573 35.1613054,96.4754638 C33.2125805,96.475195 31.3458512,96.8755257 29.6513658,97.5995625 C27.1087058,98.6860209 24.9515313,100.943897 23.4258289,103.224357 C22.0374955,105.297528 21.1754776,108.136945 21.0311868,110.85941 L21.031453,110.85941 L21.031453,111.665179 L21.031453,111.665986 L21.031453,138.820725 L25.0247416,138.820725 L25.0247416,111.665179 C25.0247416,110.052296 25.2970839,108.450704 25.8103546,107.22417 C26.5799944,105.385444 27.8650347,103.590543 29.4876409,102.483651 C31.1118445,101.377029 33.0531152,100.621267 35.1642338,100.620191 C36.5727998,100.620729 37.9025649,100.85141 39.117057,101.369769 C40.9379966,102.147309 42.4615694,103.871232 43.557594,105.509926 C44.6291264,107.113669 45.2574038,109.409723 45.2574038,111.52134 L45.2574038,138.820725 L49.2506924,138.820725 L49.2506924,111.665986 L49.3153837,111.665986 C49.3156499,110.052833 49.5994396,108.450704 50.1129765,107.22417 C50.8826163,105.385444 52.1737796,103.590543 53.7963859,102.483651 C55.4205895,101.377029 57.3647886,100.621267 59.4759072,100.620191 C60.8844732,100.620729 62.2158356,100.85141 63.4303277,101.369769 C65.2512673,102.147309 66.8065201,103.871232 67.9025447,105.509926 C68.9983031,107.150234 69.6358982,109.515116 69.6366969,111.665986 L69.7495738,111.665986 L69.7495738,138.820725 L73.7428624,138.820725 L73.7428624,111.542042 C73.7428624,109.9711 73.9824597,108.419247 74.4826857,107.22417 C75.2523255,105.385444 76.515802,103.590543 78.1386745,102.483651 C79.7626119,101.377029 81.6932338,100.621267 83.8043523,100.620191 C85.2129183,100.620729 86.5373591,100.85141 87.7518512,101.369769 C89.5727908,102.147309 91.124849,103.871232 92.2206074,105.509926 C93.316632,107.150234 93.9643434,109.515116 93.9651421,111.665986 L93.9755246,111.665986 L93.9755246,138.820725 L97.9688132,138.820725 L97.9688132,110.85941 L97.9262181,110.85941 C97.8407617,108.983851 97.4587371,107.150234 96.8315246,105.653228" id="Fill-6" fill="#C69C6D" mask="url(#mask-4)"></path>
        </g>
    </g>
</svg>