
<svg width="92px" height="121px" viewBox="675 331 92 121" version="1.1" xmlns="http://www.w3.org/2000/svg" xmlns:xlink="http://www.w3.org/1999/xlink">
    <!-- Generator: Sketch 39.1 (31720) - http://www.bohemiancoding.com/sketch -->
    <desc>Created with Sketch.</desc>
    <defs>
        <polygon id="path-1" points="45.6086146 120.99916 0 120.99916 0 0.00488107014 91.2172291 0.00488107014 91.2172291 120.99916"></polygon>
    </defs>
    <g id="icon---My-Account" stroke="none" stroke-width="1" fill="none" fill-rule="evenodd" transform="translate(675.000000, 331.000000)">
        <g id="Page-1">
            <g id="Group-4">
                <mask id="mask-2" fill="white">
                    <use xlink:href="#path-1"></use>
                </mask>
                <g id="Clip-3"></g>
                <path d="M86.9838308,116.631886 L45.5992687,116.631886 L4.23337271,116.631886 C4.23337271,116.631886 4.2323499,116.560726 4.2323499,116.547367 C4.23618543,104.658878 8.87333678,94.2604006 16.3664211,86.8111169 C20.4627632,82.743901 25.419286,79.5617001 30.9386084,77.5080541 C31.6839791,80.0356777 32.8842431,82.2902183 34.7204374,84.0800297 C37.5185817,86.81086 41.4622699,88.5007378 45.2977963,88.5025361 C45.4141406,88.5022792 45.5992687,88.4961137 45.5992687,88.4932878 C45.5992687,88.4961137 45.7938577,88.5022792 45.910202,88.5025361 C49.7457283,88.5007378 53.6940192,86.81086 56.4921635,84.0800297 C58.3283578,82.2902183 59.5309231,80.0356777 60.2762938,77.5080541 C65.7956162,79.5617001 70.7531618,82.743901 74.849504,86.8111169 C82.3428439,94.2604006 86.9805067,104.658878 86.9843422,116.547367 C86.9843422,116.560726 86.9838308,116.631886 86.9838308,116.631886 L86.9838308,116.631886 Z M53.2708327,80.599056 C51.3159928,82.5062699 48.6730595,83.4108093 45.8066428,83.462189 C45.7245625,83.4606476 45.5992687,83.4560234 45.5992687,83.4531975 C45.5992687,83.4560234 45.4821572,83.4606476 45.400077,83.462189 C42.5336603,83.4108093 39.8989094,82.5062699 37.9440695,80.599056 C36.6139089,79.298893 35.2901409,75.9111735 35.3913988,75.8875388 C38.190566,77.4361225 44.0136621,78.1043154 45.2921708,78.2307094 C45.3839678,78.2217179 45.5992687,78.2093868 45.5992687,78.1947436 C45.5992687,78.2093868 45.8240305,78.2217179 45.9158274,78.2307094 C47.1943362,78.1043154 53.0220349,77.4361225 55.8214578,75.8875388 C55.9227157,75.9111735 54.6009933,79.298893 53.2708327,80.599056 L53.2708327,80.599056 Z M23.162718,51.0911887 L23.1632294,51.0927301 L22.4089093,48.2722423 L20.0835575,49.6913492 L19.946757,49.5952692 L19.9413873,49.5911588 C19.5734325,49.3042033 18.9249728,48.4554108 18.4145921,47.2973127 L18.4133136,47.2944869 C17.8845224,46.1261128 17.4495737,44.6235139 17.1854338,42.969088 C17.0182048,41.9283925 16.9606719,40.9234058 16.9606719,40.0021681 L16.9606719,39.9664592 C16.9606719,38.4099116 17.1882465,37.0696725 17.5048053,36.3033445 L17.4966228,36.2984634 C17.6142456,36.0474737 17.6078531,36.0783015 17.7612741,35.9442005 L17.7738035,35.9485678 L17.9533062,36.06931 L17.9612329,36.0767601 L20.7892943,38.4538412 L21.5719974,34.7131432 C21.9757505,32.8403537 22.8758207,31.1784777 24.2384553,29.6997704 C26.2763983,27.4860766 29.4092562,25.4090528 33.1455703,24.1975199 C36.8463418,22.9908679 41.1216752,22.0932648 45.4057024,22.0932648 L45.4425235,22.0932648 L45.4458476,22.0932648 L45.4862485,22.0932648 C45.5545208,22.0932648 45.5992687,22.0955769 45.5992687,22.0958338 C45.5992687,22.0955769 45.6626827,22.0932648 45.7309551,22.0932648 L45.7713559,22.0932648 L45.7746801,22.0932648 L45.8115011,22.0932648 C50.0955283,22.0932648 54.3708617,22.9908679 58.0716332,24.1975199 C61.808203,25.4090528 64.9410609,27.4860766 66.9787482,29.6997704 C68.3416386,31.1784777 69.2414531,32.8403537 69.6452061,34.7131432 L70.4281649,38.4538412 L73.2562263,36.0767601 L73.2638974,36.06931 L73.4434,35.9485678 L73.4559294,35.9442005 C73.6093505,36.0783015 73.6029579,36.0474737 73.7208364,36.2984634 L73.703193,36.3033445 C74.0197518,37.0696725 74.2378654,38.4099116 74.2378654,39.9664592 L74.2378654,40.0021681 C74.2378654,40.9234058 74.1897934,41.9283925 74.0225645,42.969088 C73.7584246,44.6235139 73.3280785,46.1261128 72.7992873,47.2944869 L72.8003101,47.2973127 C72.2899294,48.4554108 71.6427482,49.3042033 71.2745377,49.5911588 L71.2699351,49.5952692 L71.1333903,49.6913492 L68.8315631,48.2722423 L68.1010232,51.0927301 L68.1010232,51.0911887 C66.0554092,58.0975796 62.9874995,63.9887743 59.0323047,68.0649817 C55.1256933,72.0841576 50.6135801,74.2564907 45.8186608,74.3286792 C45.7368362,74.3273947 45.5992687,74.3207153 45.5992687,74.3181463 C45.5992687,74.3207153 45.4826687,74.3273947 45.4010998,74.3286792 C40.6061805,74.2564907 36.1147791,72.0841576 32.2081677,68.0649817 C28.2532286,63.9887743 25.0395689,58.0975796 23.162718,51.0911887 L23.162718,51.0911887 Z M17.8837553,35.8270548 L17.8801754,35.8309083 L17.8799197,35.8306514 L17.8837553,35.8270548 Z M28.5278523,20.127735 C33.0821563,17.8143646 38.7965791,16.6028316 44.7309055,16.6046299 C44.9909542,16.6046299 45.2975406,16.6182455 45.2975406,16.622099 C45.2975406,16.6197869 45.5992687,16.6138783 45.5992687,16.6097679 C45.5992687,16.6138783 45.9104577,16.6197869 45.9104577,16.622099 C45.9104577,16.6182455 46.2216467,16.6046299 46.4816954,16.6046299 C52.4160218,16.6028316 58.1327459,17.8143646 62.6870499,20.127735 C65.6884771,21.6537116 68.1023017,23.6433899 69.6237272,26.0543817 C67.9056671,24.3683573 65.896107,22.9700592 63.5940241,21.8556338 C58.4314056,19.3660311 52.2089034,18.1740224 45.8818191,18.1686275 L45.8963941,18.17505 L45.8138024,18.1686275 C45.730188,18.1688844 45.5992687,18.1714534 45.5992687,18.1719672 C45.5992687,18.1714534 45.4778103,18.1688844 45.3939401,18.1686275 L45.3208094,18.17505 L45.3351287,18.1686275 C39.0080445,18.1740224 32.7852865,19.3660311 27.6226681,21.8556338 C25.3205852,22.9700592 23.3105137,24.3683573 21.5924535,26.0543817 C23.1136233,23.6433899 25.5266808,21.6537116 28.5278523,20.127735 L28.5278523,20.127735 Z M73.3372838,35.8306514 L73.3370281,35.8309083 L73.3334483,35.8270548 L73.3372838,35.8306514 Z M78.3922518,83.6440731 C76.5967141,81.8624825 74.2552531,79.9719669 71.6307303,78.2574268 C69.0074859,76.5451988 66.3954925,75.0179376 64.6060916,74.0060147 C63.73466,73.5132835 62.9869881,73.140267 62.7312863,72.9362897 L62.7312863,72.0970025 C62.7312863,71.7432534 62.7202912,71.5649659 63.0532148,71.1988856 C67.302978,66.8036104 69.6894425,60.8772206 71.740682,54.0922762 C72.6438206,53.9443027 73.4349619,53.5335221 74.0655224,53.0112476 L74.3813141,52.6903814 C76.953418,50.5193328 77.6259136,46.9836398 77.6259136,46.9836398 C77.6588992,46.8580164 77.6852365,46.7442104 77.7169435,46.6203854 C77.9938685,45.6847613 78.2365294,44.7121438 78.4042698,43.674788 C78.4306071,43.5106299 78.4418579,43.3575184 78.4648711,43.1943879 C80.6951018,30.3779822 73.5185763,31.322084 73.5185763,31.322084 C73.5185763,31.322084 73.040414,30.6924259 72.9437588,30.4625018 C73.7356671,26.6051719 74.2066698,24.1253314 74.2036013,17.6887413 C74.2056469,14.6229154 73.2999513,11.9920186 71.6974684,9.6930346 C70.0954969,7.39199538 67.8632206,5.66204136 65.1711925,4.15764416 C59.8474819,1.18635694 52.8141494,0.0313416083 45.910202,0.00488107014 C45.7951362,0.00539486699 45.5992687,0.00873454656 45.5992687,0.0100190387 C45.5992687,0.00873454656 45.4128621,0.00539486699 45.2977963,0.00488107014 C38.3938489,0.0313416083 31.3697216,1.18635694 26.046011,4.15764416 C23.3539829,5.66204136 21.1219623,7.39199538 19.5197351,9.6930346 C17.9172522,11.9920186 17.0115566,14.6229154 17.0136022,17.6887413 C17.0105338,24.1253314 17.4815364,26.6051719 18.2737005,30.4625018 C18.1767895,30.6924259 17.6986272,31.322084 17.6986272,31.322084 C17.6986272,31.322084 10.5221017,30.3779822 12.7523324,43.1943879 C12.7753456,43.3575184 12.7865965,43.5106299 12.812678,43.674788 C12.9806741,44.7121438 13.2230794,45.6847613 13.5000044,46.6203854 C13.5317114,46.7442104 13.5575373,46.8580164 13.5907785,46.9836398 C13.5907785,46.9836398 14.2627627,50.5193328 16.834611,52.6903814 L17.1493798,53.0112476 C17.7799404,53.5335221 18.5687803,53.9443027 19.4721746,54.0922762 C21.5231584,60.8772206 23.9050202,66.8036104 28.1547834,71.1988856 C28.4877071,71.5649659 28.467251,71.7432534 28.467251,72.0970025 L28.467251,72.9362897 C28.2115492,73.140267 27.4733382,73.5132835 26.6019067,74.0060147 C24.8125058,75.0179376 22.2097176,76.5451988 19.586729,78.2574268 C16.9622061,79.9719669 14.6204895,81.8624825 12.8249517,83.6440731 C4.51029771,91.8961644 -2.55701756e-05,103.507716 -2.55701756e-05,116.548908 C-2.55701756e-05,116.548908 0.000230131581,116.631886 0.00099723685,116.631886 L0.0843560094,116.631886 L0.0843560094,120.99916 L0.782933208,120.99916 C0.786001629,120.99916 0.788814348,120.991967 0.791627068,120.99916 L5.82895167,120.99916 L5.84403807,120.99916 L45.5992687,120.99916 L85.3734212,120.99916 L85.3882519,120.99916 L90.4255765,120.99916 C90.4286449,120.991967 90.4312019,120.99916 90.4342703,120.99916 L91.1141813,120.99916 L91.1141813,116.631886 L91.2162063,116.631886 C91.2169734,116.631886 91.2172291,116.548908 91.2172291,116.548908 C91.2172291,103.507716 86.7071615,91.8961644 78.3922518,83.6440731 L78.3922518,83.6440731 Z" id="Fill-2" fill="#C69C6D" mask="url(#mask-2)"></path>
            </g>
        </g>
    </g>
</svg>