
<svg width="193px" height="47px" viewBox="624 40 193 47" version="1.1" xmlns="http://www.w3.org/2000/svg" xmlns:xlink="http://www.w3.org/1999/xlink">
    <!-- Generator: Sketch 39.1 (31720) - http://www.bohemiancoding.com/sketch -->
    <desc>Created with Sketch.</desc>
    <defs>
        <polygon id="path-1" points="0.191845195 22.2414031 45.0940807 22.2414031 45.0940807 0.342156937 0.191845195 0.342156937 0.191845195 22.2414031"></polygon>
        <polygon id="path-3" points="0.108956536 22.2414031 45.0111921 22.2414031 45.0111921 0.342156937 0.108956536 0.342156937"></polygon>
        <polygon id="path-5" points="0.542196598 22.2414031 22.9936223 22.2414031 22.9936223 0.342156937 0.542196598 0.342156937 0.542196598 22.2414031"></polygon>
    </defs>
    <g id="logo" stroke="none" stroke-width="1" fill="none" fill-rule="evenodd" transform="translate(624.000000, 41.000000)">
        <path d="M67.3627814,21.8991861 L67.3627814,21.8991861 C67.3633977,16.6766642 69.5289795,11.9620878 73.0368029,8.53751287 C76.5470914,5.1159435 81.3805171,3.00421244 86.7353094,3.0030102 C92.0894854,3.00421244 96.922911,5.1159435 100.4332,8.53751287 C103.941639,11.9620878 106.106605,16.6766642 106.107221,21.8991861 L106.107221,21.8991861 L109.186119,21.8991861 L109.186119,21.8991861 C109.187351,15.8567379 106.67111,10.3721281 102.61049,6.41436055 C98.5523357,2.45358744 92.9300811,-0.000781454705 86.7353094,-0.000180335701 C80.5405376,-0.000781454705 74.9176668,2.45358744 70.8595119,6.41436055 C66.7995083,10.3721281 64.2832675,15.8567379 64.2838837,21.8991861 L64.2838837,21.8991861 L67.3627814,21.8991861 Z" id="Fill-1" fill="#CCC0AE"></path>
        <path d="M150.997624,21.8991861 L150.997624,21.8991861 C150.99824,16.6766642 153.163822,11.9620878 156.671645,8.53751287 C160.181934,5.1159435 165.015359,3.00421244 170.370151,3.0030102 C175.724327,3.00421244 180.557753,5.1159435 184.068042,8.53751287 C187.576481,11.9620878 189.741447,16.6766642 189.742063,21.8991861 L189.742063,21.8991861 L192.820961,21.8991861 L192.820961,21.8991861 C192.822193,15.8567379 190.305953,10.3721281 186.245333,6.41436055 C182.187178,2.45358744 176.564923,-0.000781454705 170.370151,-0.000180335701 C164.17538,-0.000781454705 158.552509,2.45358744 154.494354,6.41436055 C150.433734,10.3721281 147.91811,15.8567379 147.918726,21.8991861 L147.918726,21.8991861 L150.997624,21.8991861 Z" id="Fill-3" fill="#D3A17A"></path>
        <g id="Group-7" transform="translate(64.092346, 21.557029)">
            <mask id="mask-2" fill="white">
                <use xlink:href="#path-1"></use>
            </mask>
            <g id="Clip-6"></g>
            <path d="M42.0151829,0.342156937 L42.0151829,0.342156937 C42.0145666,5.56467884 39.8489849,10.2792552 36.3411615,13.7038301 C32.830873,17.1253995 27.9974473,19.2371306 22.642655,19.2383328 C17.288479,19.2371306 12.4550533,17.1253995 8.94476481,13.7038301 C5.43632513,10.2792552 3.27135963,5.56467884 3.27074336,0.342156937 L3.27074336,0.342156937 L0.191845648,0.342156937 L0.191845648,0.342156937 C0.190613103,6.38460516 2.70685396,11.8692149 6.76747386,15.8269825 C10.8256287,19.7877556 16.4478832,22.2421245 22.642655,22.2415233 C28.8374268,22.2421245 34.4602976,19.7877556 38.5184524,15.8269825 C42.5790723,11.8692149 45.0946969,6.38460516 45.0940806,0.342156937 L45.0940806,0.342156937 L42.0151829,0.342156937 Z" id="Fill-5" fill="#D3A17A" mask="url(#mask-2)"></path>
        </g>
        <path d="M109.186427,21.8991861 L109.186427,21.8991861 C109.187043,16.6766642 111.352625,11.9620878 114.860448,8.53751287 C118.370737,5.1159435 123.204162,3.00421244 128.558955,3.0030102 C133.913131,3.00421244 138.746556,5.1159435 142.256845,8.53751287 C145.765285,11.9620878 147.93025,16.6766642 147.930866,21.8991861 L147.930866,21.8991861 L151.009764,21.8991861 L151.009764,21.8991861 C151.010997,15.8567379 148.494756,10.3721281 144.434136,6.41436055 C140.375981,2.45358744 134.753727,-0.000781454705 128.558955,-0.000180335701 C122.364183,-0.000781454705 116.741312,2.45358744 112.683157,6.41436055 C108.623154,10.3721281 106.106913,15.8567379 106.107529,21.8991861 L106.107529,21.8991861 L109.186427,21.8991861 Z" id="Fill-8" fill="#D3A17A"></path>
        <g id="Group-12" transform="translate(105.998880, 21.557029)">
            <mask id="mask-4" fill="white">
                <use xlink:href="#path-3"></use>
            </mask>
            <g id="Clip-11"></g>
            <path d="M41.9322943,0.342156937 L41.9322943,0.342156937 C41.931678,5.56467884 39.7660962,10.2792552 36.2582728,13.7038301 C32.7479843,17.1253995 27.9145586,19.2371306 22.5597663,19.2383328 C17.2055903,19.2371306 12.3721647,17.1253995 8.86187616,13.7038301 C5.35343647,10.2792552 3.18847097,5.56467884 3.1878547,0.342156937 L3.1878547,0.342156937 L0.108956989,0.342156937 L0.108956989,0.342156937 C0.107724443,6.38460516 2.62396531,11.8692149 6.6845852,15.8269825 C10.74274,19.7877556 16.3649946,22.2421245 22.5597663,22.2415233 C28.7545381,22.2421245 34.3774089,19.7877556 38.4355638,15.8269825 C42.4955674,11.8692149 45.0118082,6.38460516 45.011192,0.342156937 L45.011192,0.342156937 L41.9322943,0.342156937 Z" id="Fill-10" fill="#D3A17A" mask="url(#mask-4)"></path>
        </g>
        <path d="M22.4602383,21.8991861 L22.4602383,21.8991861 C22.4608546,16.6766642 24.6264364,11.9620878 28.1342598,8.53751287 C31.6445483,5.1159435 36.477974,3.00421244 41.8327662,3.0030102 C47.1869422,3.00421244 52.0203679,5.1159435 55.5306564,8.53751287 C59.0390961,11.9620878 61.2040616,16.6766642 61.2046779,21.8991861 L61.2046779,21.8991861 L64.2835756,21.8991861 L64.2835756,21.8991861 C64.2848081,15.8567379 61.7685673,10.3721281 57.7079474,6.41436055 C53.6497926,2.45358744 48.027538,-0.000781454705 41.8327662,-0.000180335701 C35.6379945,-0.000781454705 30.0151236,2.45358744 25.9569688,6.41436055 C21.8963489,10.3721281 19.3807243,15.8567379 19.3813406,21.8991861 L19.3813406,21.8991861 L22.4602383,21.8991861 Z" id="Fill-13" fill="#CCC0AE"></path>
        <path d="M0,3.00319054 L0,3.00319054 C5.354176,3.00379166 10.1876017,5.11612384 13.6985065,8.5376932 C17.2063299,11.961667 19.3712954,16.6762434 19.3725279,21.8993664 L22.4514256,21.8993664 C22.4520419,15.8569182 19.935801,10.3723084 15.8751811,6.41393977 C11.8176426,2.45316665 6.19477177,-0.000601119003 0,7.94268222e-14 L0,7.94268222e-14 L0,3.00319054 Z" id="Fill-15" fill="#CCC0AE"></path>
        <g id="Group-19" transform="translate(41.290262, 21.557029)">
            <mask id="mask-6" fill="white">
                <use xlink:href="#path-5"></use>
            </mask>
            <g id="Clip-18"></g>
            <path d="M19.9147245,0.342156937 L19.9147245,0.342156937 C19.9141082,5.56467884 17.7485265,10.2792552 14.2407031,13.7038301 C10.7304146,17.1253995 5.89698887,19.2371306 0.542196598,19.2383328 L0.542196598,22.2415233 C6.73696837,22.2421245 12.3598392,19.7877556 16.417994,15.8269825 C20.4786139,11.8692149 22.9942385,6.38460516 22.9936222,0.342156937 L22.9936222,0.342156937 L19.9147245,0.342156937 Z" id="Fill-17" fill="#D3A17A" mask="url(#mask-6)"></path>
        </g>
        <path d="M189.456729,25.1184188 C188.765887,29.0461304 186.838187,32.5566653 184.068042,35.2604986 C180.557753,38.6826691 175.724327,40.7944002 170.370151,40.7950013 L170.370151,43.7981918 C176.564923,43.7993941 182.187178,41.3450252 186.245333,37.384252 C189.571356,34.1424173 191.858343,29.8762757 192.577533,25.1184188 L189.456729,25.1184188 Z" id="Fill-20" fill="#CCC0AE"></path>
    </g>
</svg>