
<svg width="119px" height="95px" viewBox="941 357 119 95" version="1.1" xmlns="http://www.w3.org/2000/svg" xmlns:xlink="http://www.w3.org/1999/xlink">
    <!-- Generator: Sketch 39.1 (31720) - http://www.bohemiancoding.com/sketch -->
    <desc>Created with Sketch.</desc>
    <defs></defs>
    <g id="icon---Quran" stroke="none" stroke-width="1" fill="none" fill-rule="evenodd" transform="translate(941.000000, 357.000000)">
        <g id="Page-1" fill="#C69C6D">
            <path d="M98.4096659,2.29216307 L112.36575,40.2412062 L59.4830733,66.5626078 L6.60014009,40.2412062 L20.5562241,2.29216307 L16.3448039,1.01619272 L16.3448039,1.01593666 L1.21462069,42.1570822 L14.6005819,48.8198854 L0,84.6389825 L47.845694,65.3672978 L54.1462823,68.503066 L2.9296056,91.3099798 L4.88515517,94.9281739 L59.4830733,70.6155997 L114.080735,94.9281739 L116.036028,91.3099798 L64.8196078,68.503066 L71.1199397,65.3672978 L118.966147,84.6394946 L104.365308,48.8198854 L117.751013,42.1573383 L102.621086,1.01593666 L98.4096659,2.29216307 Z M76.0161228,62.9300741 L100.429845,50.7790364 L111.151129,77.0822574 L76.0161228,62.9300741 Z M18.5360453,50.7790364 L42.9497672,62.9300741 L7.81450431,77.0822574 L18.5360453,50.7790364 Z" id="Fill-1"></path>
            <path d="M28.1979989,5.28182075 C30.1632942,4.41965094 32.2598998,4.03350539 34.258792,4.03043261 C37.0534968,4.02812803 39.9936175,4.76021698 42.741389,5.92223854 C46.8625334,7.65835714 50.855445,10.3480606 53.5711584,12.6029663 C54.6201024,13.4723059 54.195139,14.2737884 55.4774666,14.9298261 L55.4774666,16.0828854 L55.4774666,20.3709447 L55.4774666,53.3651361 C46.5011735,40.0904865 23.2836067,37.6878315 16.8445269,37.2707022 L16.4123825,36.8300148 L28.1979989,5.28182075 Z M65.9330528,12.6029663 C68.6485097,10.3480606 72.2510808,7.65835714 76.3722252,5.92223854 C79.1199968,4.76021698 81.8998265,4.02812803 84.6945313,4.03043261 C86.6934235,4.03350539 88.6102468,4.41965094 90.575542,5.28182075 L102.160859,36.8300148 L102.116234,37.2707022 C95.6771541,37.6878315 72.4041907,40.0904865 63.4278976,53.3651361 L63.4278976,19.5000687 L63.4278976,16.0828854 L63.4278976,15.1246914 C64.7102252,14.434597 64.7717769,13.5652574 65.9330528,12.6029663 L65.9330528,12.6029663 Z M59.4832015,62.892279 L107.497393,38.7302709 L94.1596476,2.45384232 L93.4107683,2.07333019 C90.5316864,0.616066038 87.5164213,-0.00335444744 84.5983567,0.00023045822 C80.9524429,0.00227897574 77.4724623,0.934098383 74.3104989,2.26819542 C71.1464838,3.60536523 68.2861239,5.354031 65.8579084,7.08707682 C63.1003912,9.05851887 60.8955571,11.0110121 59.4926907,12.3430606 C58.0941843,11.0110121 55.894736,9.05851887 53.1372187,7.08707682 C50.7090032,5.354031 47.8463351,3.60536523 44.68232,2.26819542 C41.5203567,0.934098383 38.0383244,0.00227897574 34.392667,0.00023045822 C31.4743459,-0.00335444744 28.4560032,0.616066038 25.5769213,2.07333019 L24.8231692,2.45384232 L11.481833,38.7302709 L59.4832015,62.892279 Z" id="Fill-2"></path>
        </g>
    </g>
</svg>